# xmcd CD database file
#
# Track frame offsets:
#	150
#	13378
#	26024
#	42220
#	58168
#	74696
#	86690
#	102999
#	117575
#	133343
#	147286
#
# Disc length: 2216 seconds
#
# Revision: 1
# Processed by: cddbd v1.5.2PL0 Copyright (c) Steve Scherf et al.
# Submitted via: CDex 1.82
#
DISCID=ac08a60b
DTITLE=Mavis Staples - We Get By
DYEAR=2019
DGENRE=Soul
TTITLE0=Change
TTITLE1=Anytime
TTITLE2=Feat.Ben Harper_We Get By
TTITLE3=Brothers And Sisters
TTITLE4=Heavy On My Mind
TTITLE5=Sometime
TTITLE6=Never Beeded Anyone
TTITLE7=Stronger
TTITLE8=Chance On Me
TTITLE9=Hard To Leave
TTITLE10=One More Change
EXTD=YEAR: 2019
EXTT0=
EXTT1=
EXTT2=
EXTT3=
EXTT4=
EXTT5=
EXTT6=
EXTT7=
EXTT8=
EXTT9=
EXTT10=
PLAYORDER=
